<svg width="12" height="12" viewBox="0 0 12 12" fill="none" xmlns="http://www.w3.org/2000/svg">
<path d="M11.8833 4.8249H11.4V4.8H6V7.2H9.3909C8.8962 8.5971 7.5669 9.6 6 9.6C4.0119 9.6 2.4 7.9881 2.4 6C2.4 4.0119 4.0119 2.4 6 2.4C6.9177 2.4 7.7526 2.7462 8.3883 3.3117L10.0854 1.6146C9.0138 0.6159 7.5804 0 6 0C2.6865 0 0 2.6865 0 6C0 9.3135 2.6865 12 6 12C9.3135 12 12 9.3135 12 6C12 5.5977 11.9586 5.205 11.8833 4.8249Z" fill="#FFC107"/>
<path d="M0.6918 3.2073L2.6631 4.653C3.1965 3.3324 4.4883 2.4 6 2.4C6.9177 2.4 7.7526 2.7462 8.3883 3.3117L10.0854 1.6146C9.0138 0.6159 7.5804 0 6 0C3.6954 0 1.6968 1.3011 0.6918 3.2073Z" fill="#FF3D00"/>
<path d="M6 12C7.5498 12 8.958 11.4069 10.0227 10.4424L8.1657 8.871C7.5633 9.3273 6.8145 9.6 6 9.6C4.4394 9.6 3.1143 8.6049 2.6151 7.2162L0.6585 8.7237C1.6515 10.6668 3.6681 12 6 12Z" fill="#4CAF50"/>
<path d="M11.8833 4.8249H11.4V4.8H6V7.2H9.3909C9.1533 7.8711 8.7216 8.4498 8.1648 8.8713L8.1657 8.871L10.0227 10.4424C9.8913 10.5618 12 9 12 6C12 5.5977 11.9586 5.205 11.8833 4.8249Z" fill="#1976D2"/>
</svg>
